<svg xmlns="http://www.w3.org/2000/svg" id="disc" viewBox="0 0 24 24"><path fill="var(--shadow)" d="M12 9a4 4 0 10.01 8.01A4 4 0 0012 9zm0 3c.55 0 1 .4 1 1 0 .5-.45 1-1 1s-1-.5-1-1c0-.6.45-1 1-1z"/><path fill="#2f4f4f" d="M4.93 4.9a9.95 9.95 0 000 14.1c3.9 3.9 10.24 3.9 14.14 0s3.9-10.2 0-14.1S8.83 1 4.93 4.9zm4.95 4.9a3.14 3.14 0 014.24 0 3.07 3.07 0 010 4.3 2.95 2.95 0 01-4.24 0 3.07 3.07 0 010-4.3z"/><path fill="#f5f5f5" d="M3.34 7c-.4.7-.7 1.4-.91 2.1l6.97 1.4-4.66-5.4c-.53.6-1 1.2-1.4 1.9zM20.66 17c.4-.7.7-1.4.91-2.2l-6.97-1.3 4.66 5.3c.53-.5 1-1.1 1.4-1.8z"/><path fill="currentColor" d="M12 8a4 4 0 10.01 8.01A4 4 0 0012 8zm0 3c.55 0 1 .4 1 1 0 .5-.45 1-1 1s-1-.5-1-1c0-.6.45-1 1-1z"/></svg>